# xmcd CD database file
#
# Track frame offsets:
#	150
#	13327
#	26022
#	40080
#	53222
#	64065
#	76710
#	88842
#	102872
#	115702
#	130460
#	144380
#	155307
#	166292
#	177592
#	191697
#	203932
#	214957
#	227592
#	238270
#
# Disc length: 3345 seconds
#
# Revision: 0
# Processed by: cddbd v1.4PL0 Copyright (c) Steve Scherf et al.
# Submitted via: CDex 1.50
#
DISCID=180d0f14
DTITLE=Slim Whitman - Premium Masters - Birmingham Jail
DYEAR=1900
DGENRE=Country
TTITLE0=Birmingham Jail
TTITLE1=Wabash Waltz
TTITLE2=Paint A Rose On A Garden Wall
TTITLE3=I'll Do As Much For You Someday
TTITLE4=Let's Go To Church (Next Sunday Morning)
TTITLE5=I'm Casting My Lasso Toward The Sky
TTITLE6=There's A Rainbow In Every Teardrop
TTITLE7=Tears Can Never Drown The Flame (That's In My Heart)
TTITLE8=I'm Crying For You 
TTITLE9=I'll Never Pass This Way Again
TTITLE10=Song Of The Old Waterwheel
TTITLE11=Song Of The Wild
TTITLE12=A Heart Full Of Love
TTITLE13=Blue Eyes Crying In The Rain
TTITLE14=Haunted Hungry Heart
TTITLE15=Tell Me
TTITLE16=Ride Away (With A Song In Your Heart)
TTITLE17=South Of The Border
TTITLE18=Tennessee Yodel Polka
TTITLE19=Cool Water
EXTD=
EXTT0=
EXTT1=
EXTT2=
EXTT3=
EXTT4=
EXTT5=
EXTT6=
EXTT7=
EXTT8=
EXTT9=
EXTT10=
EXTT11=
EXTT12=
EXTT13=
EXTT14=
EXTT15=
EXTT16=
EXTT17=
EXTT18=
EXTT19=
PLAYORDER=
